<?xml version="1.0" standalone="no"?> <!DOCTYPE svg PUBLIC "-//W3C//DTD SVG 1.0//EN" "http://www.w3.org/TR/2001/REC-SVG-20010904/DTD/svg10.dtd" > <svg xmlns="http://www.w3.org/2000/svg" width="100%" height="100%">
<defs >
<font id="niketitles" horiz-adv-x="432" ><font-face
    font-family="TradeGothicW01-BoldCn20"
    units-per-em="1000"
    panose-1="2 11 8 6 4 3 3 2 0 4"
    ascent="964"
    descent="-236"
    alphabetic="0" />
<missing-glyph horiz-adv-x="0" />
<glyph unicode=" " glyph-name="space" horiz-adv-x="222" />
<glyph unicode="!" glyph-name="exclam" horiz-adv-x="278" d="M80 0V118H198V0H80ZM76 722H202L180 212H98L76 722Z" />
<glyph unicode="&quot;" glyph-name="quotedbl" horiz-adv-x="333" d="M199 722H293V448H199V722ZM40 722H134V448H40V722Z" />
<glyph unicode="#" glyph-name="numbersign" horiz-adv-x="444" d="M192 430L176 292H256L272 430H192ZM408 214H336L312 0H222L247 214H166L142 0H51L76 214H10V292H86L101 430H35V508H111L136 722H225L200 508H281L306 722H395L370 508H434V430H362L346 292H408V214Z" />
<glyph unicode="$" glyph-name="dollar" horiz-adv-x="444" d="M192 624Q169 616 156 596T142 550Q142 517 155 494T192 450V624ZM252 96Q283 108 295 131T308 189Q308 226 293 248T252 293V96ZM192 810H252V722Q294 714 330 690T391 631L315 566Q304 585 290
602T252 624V417Q284 397 313 375T364 327T400 269T414 194Q414 156 404 123T373 63T322 20T252 0V-116H192V0Q140 5 99 38T30 113L113 176Q123 150 143 127T192 96V331Q163 349 136 369T87 415T53 470T40 537Q40 572 50 603T79 659T127 700T192 722V810Z" />
<glyph unicode="%" glyph-name="percent" horiz-adv-x="778" d="M130 558Q130 523 154 499T214 474Q249 474 273 498T298 558Q298 593 274 617T214 642Q179 642 155 618T130 558ZM480 164Q480 129 504 105T564 80Q599 80 623 104T648 164Q648 199 624 223T564
248Q529 248 505 224T480 164ZM632 732L223 -10H148L557 732H632ZM400 164Q400 198 413 228T448 280T500 315T564 328Q598 328 628 315T680 280T715 228T728 164Q728 130 715 100T680 48T628 13T564 0Q530 0 500 13T448 48T413 100T400 164ZM50 558Q50 592 63 622T98
674T150 709T214 722Q248 722 278 709T330 674T365 622T378 558Q378 524 365 494T330 442T278 407T214 394Q180 394 150 407T98 442T63 494T50 558Z" />
<glyph unicode="&amp;" glyph-name="ampersand" horiz-adv-x="556" d="M166 175Q166 143 186 121T239 98Q257 98 269 102T296 119Q267 153 242 188T197 264Q181 240 174 222T166 175ZM192 589Q192 554 202 518T226 450Q248 479 267 511T286 582Q286 624 275 642T241
660Q218 660 205 642T192 589ZM506 323Q495 273 477 227T438 134Q452 121 470 112T507 100V-10Q425 -8 367 45Q337 16 305 3T225 -10Q186 -10 154 2T100 37T65 90T52 159Q52 216 80 269T147 363Q127 407 109 460T90 562Q90 599 100 630T129 683T178 719T247 732Q316
732 355 691T394 582Q394 548 383 519T353 462T313 411T270 363Q289 324 311 287T360 216Q373 249 384 282T404 350L506 323Z" />
<glyph unicode="&apos;" glyph-name="quotesingle" horiz-adv-x="222" d="M64 722H158V448H64V722Z" />
<glyph unicode="(" glyph-name="parenleft" horiz-adv-x="278" d="M246 732Q189 644 159 540T128 323Q128 211 158 107T246 -86H150Q95 0 64 106T32 323Q32 434 63 540T150 732H246Z" />
<glyph unicode=")" glyph-name="parenright" horiz-adv-x="278" d="M128 732Q183 646 214 540T246 323Q246 212 215 106T128 -86H32Q89 2 119 106T150 323Q150 435 120 539T32 732H128Z" />
<glyph unicode="*" glyph-name="asterisk" horiz-adv-x="444" d="M402 556Q364 554 327 549T251 539Q277 510 304 483T362 432L283 377Q270 413 254 447T222 517Q206 482 190 448T161 377L82 432Q112 456 139 483T193 539Q155 544 118 549T42 556L72 645Q132 609
199 578Q196 615 190 651T175 722H269Q261 687 255 651T245 578Q312 609 372 645L402 556Z" />
<glyph unicode="+" glyph-name="plus" horiz-adv-x="600" d="M251 506H349V302H553V204H349V0H251V204H47V302H251V506Z" />
<glyph unicode="," glyph-name="comma" horiz-adv-x="222" d="M170 0L101 -124H48L97 0H52V118H170V0Z" />
<glyph unicode="-" glyph-name="hyphen" horiz-adv-x="333" d="M44 223V315H289V223H44Z" />
<glyph unicode="." glyph-name="period" horiz-adv-x="222" d="M52 0V118H170V0H52Z" />
<glyph unicode="/" glyph-name="slash" horiz-adv-x="278" d="M201 732H299L77 -10H-21L201 732Z" />
<glyph unicode="0" glyph-name="zero" horiz-adv-x="444" d="M280 565Q280 634 222 634Q164 634 164 565V157Q164 88 222 88Q280 88 280 157V565ZM46 534Q46 637 87 684T222 732Q316 732 357 685T398 534V188Q398 85 357 38T222 -10Q128 -10 87 37T46 188V534Z" />
<glyph unicode="1" glyph-name="one" horiz-adv-x="444" d="M177 572H79V639Q121 660 158 683T226 732H289V0H177V572Z" />
<glyph unicode="2" glyph-name="two" horiz-adv-x="444" d="M44 0V97Q102 181 146 248T221 369T266 467T282 552Q282 595 267 614T226 634Q196 634 181 613T166 559V510H48V544Q48 584 60 618T96 677T154 717T232 732Q270 732 301 719T354 684T388 632T400 572Q400
529 392 489T358 396T288 274T170 102H389V0H44Z" />
<glyph unicode="3" glyph-name="three" horiz-adv-x="444" d="M158 209V160Q158 126 171 107T214 88Q241 88 257 108T273 173V228Q273 287 249 308T167 330V428Q194 428 213 433T245 450T262 484T268 538Q268 589 257 611T218 634Q192 634 177 619T162 560V530H50V564Q50
601 61 631T94 684T147 719T219 732Q259 732 289 717T339 676T370 617T380 547Q380 484 365 446T302 381Q329 367 346 351T374 314T387 266T391 202Q391 93 348 42T211 -10Q134 -10 90 31T46 166V209H158Z" />
<glyph unicode="4" glyph-name="four" horiz-adv-x="444" d="M234 266V548H232L111 266H234ZM232 174H16V266L226 722H346V266H412V174H346V0H232V174Z" />
<glyph unicode="5" glyph-name="five" horiz-adv-x="444" d="M162 209V151Q162 122 177 105T217 88Q246 88 262 107T278 176V340Q278 375 263 390T226 406Q197 406 182 390T159 351H63Q64 393 66 432T69 514T71 607T72 722H373L369 620H174L167 464L169 462Q192
490 213 497T264 504Q336 504 366 455T396 314V214Q396 100 357 45T228 -10Q190 -10 158 -2T101 26T64 77T50 154V209H162Z" />
<glyph unicode="6" glyph-name="six" horiz-adv-x="444" d="M164 157Q164 88 222 88Q280 88 280 157V277Q280 312 266 329T228 346Q211 346 193 334T164 313V157ZM275 528V565Q275 634 222 634Q164 634 164 565V396Q176 408 186 417T208 432T233 441T266 444Q293
444 317 436T359 410T387 364T398 296V210Q398 95 357 43T222 -10Q128 -10 87 37T46 188V534Q46 637 87 684T222 732Q259 733 288 721T339 688T371 636T383 572V528H275Z" />
<glyph unicode="7" glyph-name="seven" horiz-adv-x="444" d="M56 620V722H382V652L235 0H118L263 620H56Z" />
<glyph unicode="8" glyph-name="eight" horiz-adv-x="444" d="M222 436Q251 436 263 459T276 535Q276 588 264 611T222 634Q193 634 181 611T168 535Q168 482 180 459T222 436ZM222 88Q258 88 272 119T286 208Q286 265 272 296T222 328Q186 328 172 297T158 208Q158
151 172 120T222 88ZM46 200Q46 266 60 311T121 385Q88 409 72 448T56 529Q56 634 100 683T222 732Q298 732 343 683T388 529Q388 487 372 448T323 385Q369 356 383 311T398 200Q398 97 354 44T222 -10Q134 -10 90 43T46 200Z" />
<glyph unicode="9" glyph-name="nine" horiz-adv-x="444" d="M280 565Q280 634 222 634Q164 634 164 565V445Q164 410 178 393T216 376Q233 376 251 388T280 409V565ZM169 194V157Q169 88 222 88Q280 88 280 157V326Q268 314 258 305T236 290T211 281T178 278Q151
278 127 286T85 312T57 358T46 426V512Q46 627 87 679T222 732Q316 732 357 685T398 534V188Q398 85 357 38T222 -10Q185 -11 156 1T105 34T73 85T61 150V194H169Z" />
<glyph unicode=":" glyph-name="colon" horiz-adv-x="222" d="M52 278V396H170V278H52ZM52 0V118H170V0H52Z" />
<glyph unicode=";" glyph-name="semicolon" horiz-adv-x="222" d="M52 278V396H170V278H52ZM170 0L101 -124H48L97 0H52V118H170V0Z" />
<glyph unicode="&lt;" glyph-name="less" horiz-adv-x="600" d="M553 0L47 211V295L553 506V402L188 253L553 104V0Z" />
<glyph unicode="=" glyph-name="equal" horiz-adv-x="600" d="M553 100H47V198H553V100ZM553 308H47V406H553V308Z" />
<glyph unicode="&gt;" glyph-name="greater" horiz-adv-x="600" d="M47 104L412 253L47 402V506L553 295V211L47 0V104Z" />
<glyph unicode="?" glyph-name="question" horiz-adv-x="389" d="M124 0V118H242V0H124ZM137 212V296Q137 348 153 390T189 469Q209 505 225 536T241 595Q241 613 230 626T199 640Q183 640 172 633T152 615T137 591T128 564L32 600Q55 666 98 699T213 732Q241
732 267 722T313 694T345 652T357 598Q357 570 352 549T338 509T318 475T295 443Q283 427 272 410T253 372T239 325T233 266V212H137Z" />
<glyph unicode="@" glyph-name="at" horiz-adv-x="800" d="M369 233Q396 233 419 247T458 283T483 331T492 384Q492 421 471 446T415 471Q388 471 365 457T326 421T300 373T291 322Q291 284 312 259T369 233ZM539 548H620L557 291Q555 282 553 272T550 252Q550
241 553 233T566 225Q587 225 607 238T644 276T671 334T682 408Q682 468 661 514T604 591T520 638T415 654Q351 654 299 632T209 570T151 476T130 359Q130 295 152 242T214 150T308 90T427 68Q490 68 545 89T640 151H723Q672 73 594 32T421 -10Q341 -10 272 16T151
92T70 209T40 361Q40 442 69 510T150 627T269 704T416 732Q483 732 545 710T655 649T731 553T760 429Q760 352 732 298T664 210T582 159T513 143Q490 143 474 156T456 197L454 198Q434 175 405 159T346 143Q314 143 286 156T237 191T204 244T191 309Q191 356 206
401T250 482T317 539T406 561Q443 561 473 545T523 496L539 548Z" />
<glyph unicode="A" glyph-name="A" horiz-adv-x="444" d="M172 268H272L223 578H221L172 268ZM132 0H12L145 722H299L432 0H312L290 160H154L132 0Z" />
<glyph unicode="B" glyph-name="B" horiz-adv-x="500" d="M184 426H229Q264 426 288 449T312 518Q312 620 231 620H184V426ZM184 102H236Q286 102 306 130T326 213Q326 269 303 296T224 324H184V102ZM60 722H244Q344 722 390 673T436 531Q436 508 431 485T416
441T389 405T350 380Q398 359 424 319T450 209Q450 164 440 126T406 60T346 16T256 0H60V722Z" />
<glyph unicode="C" glyph-name="C" horiz-adv-x="500" d="M310 481V537Q310 583 292 603T250 624Q212 624 198 605T184 544V178Q184 137 198 118T250 98Q284 98 297 117T310 171V258H434V175Q434 137 423 103T389 44T331 5T250 -10Q201 -10 166 4T107 44T72 103T60
175V547Q60 585 71 619T106 678T165 717T250 732Q296 732 331 716T388 673T422 610T434 534V481H310Z" />
<glyph unicode="D" glyph-name="D" horiz-adv-x="500" d="M184 102H227Q277 102 296 124T316 203V519Q316 576 297 598T227 620H184V102ZM60 722H244Q341 722 390 669T440 504V218Q440 106 391 53T244 0H60V722Z" />
<glyph unicode="E" glyph-name="E" horiz-adv-x="444" d="M60 0V722H392V614H184V428H344V320H184V108H406V0H60Z" />
<glyph unicode="F" glyph-name="F" horiz-adv-x="444" d="M60 0V722H406V614H184V428H350V320H184V0H60Z" />
<glyph unicode="G" glyph-name="G" horiz-adv-x="500" d="M231 366H434V0H374L351 54Q323 21 297 6T226 -10Q152 -10 106 39T60 175V547Q60 585 71 619T105 678T162 717T242 732Q288 732 323 716T381 673T416 610T428 534V488H310Q310 528 306 554T293 596T271
618T239 624Q216 624 200 608T184 545V174Q184 139 197 119T242 98Q280 98 295 121T310 198V268H231V366Z" />
<glyph unicode="H" glyph-name="H" horiz-adv-x="500" d="M60 0V722H184V428H316V722H440V0H316V320H184V0H60Z" />
<glyph unicode="I" glyph-name="I" horiz-adv-x="278" d="M77 0V722H201V0H77Z" />
<glyph unicode="J" glyph-name="J" horiz-adv-x="278" d="M3 98H29Q65 98 79 113T94 158V722H218V144Q218 109 210 81T183 33T129 1T44 -10H3V98Z" />
<glyph unicode="K" glyph-name="K" horiz-adv-x="444" d="M54 0V722H178V455H180L310 722H434L300 453L451 0H325L224 336H222L178 256V0H54Z" />
<glyph unicode="L" glyph-name="L" horiz-adv-x="389" d="M54 0V722H178V108H373V0H54Z" />
<glyph unicode="M" glyph-name="M" horiz-adv-x="611" d="M557 722V0H449V564H447L335 0H275L163 564H161V0H53V722H216L304 300H306L394 722H557Z" />
<glyph unicode="N" glyph-name="N" horiz-adv-x="500" d="M60 0V722H175L326 309H328V722H440V0H332L174 451H172V0H60Z" />
<glyph unicode="O" glyph-name="O" horiz-adv-x="500" d="M184 178Q184 137 198 118T250 98Q288 98 302 117T316 178V544Q316 585 302 604T250 624Q212 624 198 605T184 544V178ZM60 547Q60 585 71 619T106 678T165 717T250 732Q299 732 334 718T393 678T428 619T440
547V175Q440 137 429 103T394 44T335 5T250 -10Q201 -10 166 4T107 44T72 103T60 175V547Z" />
<glyph unicode="P" glyph-name="P" horiz-adv-x="500" d="M184 398H232Q262 398 282 403T315 421T333 455T338 509Q338 541 333 562T316 596T283 614T232 620H184V398ZM60 0V722H238Q353 722 407 673T462 509Q462 451 449 411T408 345T338 308T238 296H184V0H60Z" />
<glyph unicode="Q" glyph-name="Q" horiz-adv-x="500" d="M259 258Q269 253 283 244T316 214V544Q316 585 302 604T250 624Q212 624 198 605T184 544V178Q184 137 198 118T250 98Q278 98 292 109Q281 129 273 136T259 148V258ZM477 -54Q460 -54 444 -52T413 -43T383
-23T351 13Q310 -10 250 -10Q201 -10 166 4T107 44T72 103T60 175V547Q60 585 71 619T106 678T165 717T250 732Q299 732 334 718T393 678T428 619T440 547V175Q440 122 419 82Q440 64 453 60T477 54V-54Z" />
<glyph unicode="R" glyph-name="R" horiz-adv-x="500" d="M184 398H228Q253 398 270 403T299 421T315 455T320 509Q320 573 299 596T228 620H184V398ZM184 0H60V722H234Q338 722 391 673T444 509Q444 465 437 434T417 382T389 347T357 327L462 0H336L248 299Q236
297 219 297T184 296V0Z" />
<glyph unicode="S" glyph-name="S" horiz-adv-x="444" d="M286 544Q284 567 278 582T262 607T241 620T220 624Q190 624 174 606T158 553Q158 522 176 496T223 444T284 392T345 333T391 263T410 175Q410 130 396 96T356 38T294 2T214 -10Q171 -10 137 6T80 49T43
113T28 190L146 207Q150 152 170 125T220 98Q252 98 272 115T292 164Q292 200 274 228T227 282T166 334T105 391T59 461T40 552Q40 639 90 685T232 732Q270 732 300 719T351 683T386 627T404 557L286 544Z" />
<glyph unicode="T" glyph-name="T" horiz-adv-x="389" d="M132 614H12V722H376V614H256V0H132V614Z" />
<glyph unicode="U" glyph-name="U" horiz-adv-x="500" d="M60 722H184V177Q184 98 250 98Q316 98 316 177V722H440V182Q440 88 390 39T250 -10Q161 -10 111 39T60 182V722Z" />
<glyph unicode="V" glyph-name="V" horiz-adv-x="444" d="M313 722H435L284 0H160L9 722H131L221 221H223L313 722Z" />
<glyph unicode="W" glyph-name="W" horiz-adv-x="667" d="M275 722H377L461 262H463L532 722H648L521 0H417L327 477H325L241 0H137L0 722H116L192 262H194L275 722Z" />
<glyph unicode="X" glyph-name="X" horiz-adv-x="444" d="M156 378L24 722H146L222 493H224L293 722H415L290 378L430 0H308L224 263H222L136 0H14L156 378Z" />
<glyph unicode="Y" glyph-name="Y" horiz-adv-x="444" d="M284 0H160V300L10 722H136L223 447H225L308 722H434L284 300V0Z" />
<glyph unicode="Z" glyph-name="Z" horiz-adv-x="444" d="M72 614V722H400V604L172 108H400V0H44V118L275 614H72Z" />
<glyph unicode="[" glyph-name="bracketleft" horiz-adv-x="278" d="M250 674H132V-28H250V-76H36V722H250V674Z" />
<glyph unicode="\" glyph-name="backslash" horiz-adv-x="278" d="M299 -10H201L-21 732H77L299 -10Z" />
<glyph unicode="]" glyph-name="bracketright" horiz-adv-x="278" d="M28 722H242V-76H28V-28H146V674H28V722Z" />
<glyph unicode="^" glyph-name="asciicircum" horiz-adv-x="600" d="M56 302L246 722H354L544 302H435L299 604L163 302H56Z" />
<glyph unicode="_" glyph-name="underscore" horiz-adv-x="500" d="M0 -125V-75H500V-125H0Z" />
<glyph unicode="`" glyph-name="grave" horiz-adv-x="222" d="M-32 746H103L182 602H99L-32 746Z" />
<glyph unicode="a" glyph-name="a" horiz-adv-x="444" d="M273 273Q235 251 210 233T171 198T152 165T146 131Q146 105 159 94T198 82Q221 82 240 97T273 132V273ZM42 380Q47 462 95 505T222 548Q300 548 342 512T385 402V57Q385 44 387 29T392 0H285Q284 11 282
21T279 42Q247 16 218 3T148 -10Q91 -10 63 24T34 111Q34 155 48 190T93 254T168 307T273 355V387Q273 456 218 456Q180 456 168 436T154 380H42Z" />
<glyph unicode="b" glyph-name="b" horiz-adv-x="444" d="M166 110Q183 98 198 90T230 82Q241 82 251 85T268 99T280 125T284 169V369Q284 396 280 412T269 439T251 452T230 456Q213 456 198 448T166 428V110ZM54 0V722H166V492Q182 505 195 515T222 533T249 544T282
548Q335 548 365 510T396 398V140Q396 66 366 28T282 -10Q240 -10 215 5T162 56H160V0H54Z" />
<glyph unicode="c" glyph-name="c" horiz-adv-x="444" d="M284 354V368Q284 415 268 435T222 456Q192 456 176 436T160 368V170Q160 123 176 103T222 82Q252 82 268 102T284 170V204H396V190Q396 146 387 109T357 46T303 5T222 -10Q174 -10 141 4T87 45T57 109T48
190V348Q48 392 57 429T87 492T141 533T222 548Q269 548 302 534T355 495T385 433T396 354H284Z" />
<glyph unicode="d" glyph-name="d" horiz-adv-x="444" d="M278 428Q261 440 246 448T214 456Q191 456 176 439T160 369V169Q160 116 175 99T214 82Q231 82 246 90T278 110V428ZM284 0V56H282Q254 21 229 6T162 -10Q109 -10 79 28T48 140V398Q48 472 78 510T162
548Q180 548 194 545T222 534T248 516T278 492V722H390V0H284Z" />
<glyph unicode="e" glyph-name="e" horiz-adv-x="444" d="M284 340V368Q284 415 268 435T222 456Q192 456 176 436T160 368V340H284ZM396 248H160V170Q160 123 176 103T222 82Q252 82 268 102T284 170V182H396Q395 139 386 104T355 44T302 4T222 -10Q174 -10 141
4T87 45T57 109T48 190V348Q48 392 57 429T87 492T141 533T222 548Q270 548 303 534T357 493T387 429T396 348V248Z" />
<glyph unicode="f" glyph-name="f" horiz-adv-x="278" d="M76 446H10V538H76V605Q76 671 108 701T201 732H257V640H225Q205 640 197 632T188 604V538H252V446H188V0H76V446Z" />
<glyph unicode="g" glyph-name="g" horiz-adv-x="444" d="M231 -90Q287 -90 306 -81T326 -50Q326 -29 307 -20T231 -10Q175 -10 156 -19T136 -50Q136 -71 155 -80T231 -90ZM198 230Q214 230 225 235T242 252T251 287T254 343Q254 377 252 399T243 433T225 451T198
456Q184 456 174 451T157 434T146 399T142 343Q142 309 145 287T156 253T174 235T198 230ZM426 455Q421 456 417 456Q413 456 408 456Q393 456 380 453T354 439Q360 418 363 395T366 354Q366 292 356 251T324 185T271 149T196 138H160Q151 136 145 130T138 113Q138
95 159 90T213 83T282 80T351 67T404 30T426 -42Q426 -111 366 -140T196 -170Q111 -170 65 -148T18 -84Q18 -52 40 -30T91 0V2Q68 11 54 27T40 70Q40 84 46 97T63 121T85 141T108 157Q87 172 73 186T51 221T40 272T36 350Q36 405 45 443T76 504T130 538T210 548Q246
548 277 535T334 490Q345 506 354 517T374 535T396 545T426 548V455Z" />
<glyph unicode="h" glyph-name="h" horiz-adv-x="444" d="M54 0V722H166V488Q181 501 194 512T222 531T254 543T296 548Q341 548 365 518T390 435V0H278V417Q278 437 267 446T238 456Q220 456 203 446T166 422V0H54Z" />
<glyph unicode="i" glyph-name="i" horiz-adv-x="222" d="M55 620V722H167V620H55ZM55 0V538H167V0H55Z" />
<glyph unicode="j" glyph-name="j" horiz-adv-x="222" d="M61 620V722H173V620H61ZM0 -68H19Q42 -68 51 -56T61 -26V537H173V-31Q173 -71 163 -98T134 -141T93 -163T43 -170H0V-68Z" />
<glyph unicode="k" glyph-name="k" horiz-adv-x="444" d="M294 368L424 0H311L221 267H219L166 188V0H54V722H166V348H168L291 538H411L294 368Z" />
<glyph unicode="l" glyph-name="l" horiz-adv-x="222" d="M55 0V722H167V0H55Z" />
<glyph unicode="m" glyph-name="m" horiz-adv-x="667" d="M277 0V417Q277 437 266 446T238 456Q220 456 203 446T166 422V0H54V538H160V484Q178 499 192 511T220 531T249 543T284 548Q326 548 345 533T382 484Q402 503 418 515T449 535T478 545T507 548Q560 548
586 518T612 435V0H500V417Q500 437 489 446T460 456Q442 456 425 446T389 422V0H277Z" />
<glyph unicode="n" glyph-name="n" horiz-adv-x="444" d="M54 0V538H160V484Q178 499 192 511T221 531T254 543T296 548Q341 548 365 518T390 435V0H278V417Q278 437 267 446T238 456Q220 456 203 446T166 422V0H54Z" />
<glyph unicode="o" glyph-name="o" horiz-adv-x="444" d="M284 368Q284 415 268 435T222 456Q192 456 176 436T160 368V170Q160 123 176 103T222 82Q252 82 268 102T284 170V368ZM48 348Q48 392 57 429T87 492T141 533T222 548Q270 548 303 534T357 493T387 429T396
348V190Q396 146 387 109T357 46T303 5T222 -10Q174 -10 141 4T87 45T57 109T48 190V348Z" />
<glyph unicode="p" glyph-name="p" horiz-adv-x="444" d="M166 110Q183 98 198 90T230 82Q241 82 251 85T268 99T280 125T284 169V369Q284 396 280 412T269 439T251 452T230 456Q213 456 198 448T166 428V110ZM160 538V482H162Q190 517 215 532T282 548Q335 548
365 510T396 398V140Q396 66 366 28T282 -10Q264 -10 250 -7T222 4T196 22T166 46V-170H54V538H160Z" />
<glyph unicode="q" glyph-name="q" horiz-adv-x="444" d="M278 428Q261 440 246 448T214 456Q191 456 176 439T160 369V169Q160 116 175 99T214 82Q231 82 246 90T278 110V428ZM390 538V-170H278V46Q261 32 248 22T222 5T195 -6T162 -10Q109 -10 79 28T48 140V398Q48
472 78 510T162 548Q204 548 229 533T282 482H284V538H390Z" />
<glyph unicode="r" glyph-name="r" horiz-adv-x="333" d="M54 0V538H161V475H163Q183 510 216 529T290 548H313V431Q298 435 282 438T241 442Q212 442 189 424T166 370V0H54Z" />
<glyph unicode="s" glyph-name="s" horiz-adv-x="389" d="M258 389Q246 456 194 456Q172 456 159 445T145 413Q145 392 160 375T199 340T250 303T300 260T339 206T355 135Q355 99 344 72T311 27T261 -1T198 -10Q124 -10 82 29T27 140L125 167Q130 133 145 108T199
82Q221 82 235 94T249 129Q249 152 234 171T195 209T144 246T94 288T55 339T39 404Q39 436 50 462T82 508T130 537T189 548Q255 548 297 508T353 405L258 389Z" />
<glyph unicode="t" glyph-name="t" horiz-adv-x="278" d="M10 446V538H72V683H184V538H259V446H184V136Q184 92 222 92H259V-4Q248 -7 236 -8T203 -10Q140 -10 106 19T72 111V446H10Z" />
<glyph unicode="u" glyph-name="u" horiz-adv-x="444" d="M390 538V0H284V54Q266 39 252 27T223 7T190 -5T148 -10Q103 -10 79 20T54 103V538H166V121Q166 101 177 92T206 82Q224 82 241 92T278 116V538H390Z" />
<glyph unicode="v" glyph-name="v" horiz-adv-x="389" d="M265 538H379L249 0H140L10 538H124L193 178H195L265 538Z" />
<glyph unicode="w" glyph-name="w" horiz-adv-x="556" d="M236 537H319L379 202H381L442 538H550L426 0H336L275 340H273L200 0H110L6 538H114L163 202H165L236 537Z" />
<glyph unicode="x" glyph-name="x" horiz-adv-x="389" d="M132 285L21 538H137L194 388L254 538H370L254 287L376 0H260L195 182H193L128 0H12L132 285Z" />
<glyph unicode="y" glyph-name="y" horiz-adv-x="389" d="M266 538H379L238 -40Q229 -77 216 -101T184 -141T141 -162T85 -169H38V-77H65Q107 -77 123 -55T139 10Q139 27 136 44T127 81L10 538H124L196 194H198L266 538Z" />
<glyph unicode="z" glyph-name="z" horiz-adv-x="389" d="M44 446V538H359V446L150 92H359V0H30V92L235 446H44Z" />
<glyph unicode="{" glyph-name="braceleft" horiz-adv-x="278" d="M0 354Q22 354 39 373T56 434V636Q56 684 78 708T160 732H270V684H188Q168 684 160 671T152 634V440Q152 410 144 389T123 354T98 334T76 326V323Q85 321 98 315T123 296T143 261T152 206V12Q152
-11 160 -24T188 -38H270V-86H160Q100 -86 78 -62T56 10V216Q56 258 39 277T0 296V354Z" />
<glyph unicode="|" glyph-name="bar" horiz-adv-x="222" d="M62 732H160V-10H62V732Z" />
<glyph unicode="}" glyph-name="braceright" horiz-adv-x="278" d="M278 292Q256 292 239 273T222 212V10Q222 -38 200 -62T118 -86H8V-38H90Q110 -38 118 -25T126 12V206Q126 236 134 257T155 292T180 312T202 320V323Q193 324 180 330T155 350T135 385T126 440V634Q126
657 118 670T90 684H8V732H118Q178 732 200 708T222 636V430Q222 388 239 369T278 350V292Z" />
<glyph unicode="~" glyph-name="asciitilde" horiz-adv-x="600" d="M539 249Q525 236 511 223T482 198T448 179T406 171Q378 171 354 180T304 204Q283 216 254 225T189 235Q156 235 137 215T105 171L61 257Q72 270 85 283T113 308T149 327T194 335Q220 335 248
326T305 303Q333 291 357 281T407 271Q437 271 457 291T495 335L539 249Z" />
</font>
</defs>
</svg>
